HIERARCHY
ROOT SpineBase
{
  OFFSET 0.000000 0.000000 0.000000
  CHANNELS 6 Xposition Yposition Zposition Zrotation Xrotation Yrotation
  JOINT SpineMid
  {
    OFFSET 0.000000 25.890394 0.000000
    CHANNELS 3 Zrotation Xrotation Yrotation
    JOINT SpineShoulder
    {
      OFFSET -0.246621 19.246291 -0.489456
      CHANNELS 3 Zrotation Xrotation Yrotation
      JOINT Neck
      {
        OFFSET -0.110825 6.381157 -0.411662
        CHANNELS 3 Zrotation Xrotation Yrotation
        JOINT Head
        {
          OFFSET 3.470366 12.532482 1.390498
          CHANNELS 3 Zrotation Xrotation Yrotation
          End Site
          {
            OFFSET 0 0 0
          }
        }
      }
      JOINT ShoulderLeft
      {
        OFFSET -10.257460 -1.546321 -6.258346
        CHANNELS 3 Zrotation Xrotation Yrotation
        JOINT ElbowLeft
        {
          OFFSET -6.868757 -19.753955 -1.441160
          CHANNELS 3 Zrotation Xrotation Yrotation
          JOINT WristLeft
          {
            OFFSET 22.540377 2.639888 -10.689610
            CHANNELS 3 Zrotation Xrotation Yrotation
            JOINT HandLeft
            {
              OFFSET 9.308108 -1.822312 -3.605976
              CHANNELS 3 Zrotation Xrotation Yrotation
              JOINT HandTipLeft
              {
                OFFSET 4.613025 0.028189 -3.338401
                CHANNELS 3 Zrotation Xrotation Yrotation
                End Site
                {
                  OFFSET 0 0 0
                }
              }
              JOINT ThumbLeft
              {
                OFFSET -0.373252 4.143135 -3.285013
                CHANNELS 3 Zrotation Xrotation Yrotation
                End Site
                {
                  OFFSET 0 0 0
                }
              }
            }
          }
        }
      }
      JOINT ShoulderRight
      {
        OFFSET 12.281094 -4.162345 6.827016
        CHANNELS 3 Zrotation Xrotation Yrotation
        JOINT ElbowRight
        {
          OFFSET 4.727923 -16.951530 4.636931
          CHANNELS 3 Zrotation Xrotation Yrotation
          JOINT WristRight
          {
            OFFSET -7.413593 -0.289660 -24.283655
            CHANNELS 3 Zrotation Xrotation Yrotation
            JOINT HandRight
            {
              OFFSET 3.438203 0.193755 -7.843209
              CHANNELS 3 Zrotation Xrotation Yrotation
              JOINT HandTipRight
              {
                OFFSET 2.538988 3.057960 -4.089911
                CHANNELS 3 Zrotation Xrotation Yrotation
                End Site
                {
                  OFFSET 0 0 0
                }
              }
              JOINT ThumbRight
              {
                OFFSET -4.399942 -0.358962 -0.919943
                CHANNELS 3 Zrotation Xrotation Yrotation
                End Site
                {
                  OFFSET 0 0 0
                }
              }
            }
          }
        }
      }
    }
  }
  JOINT HipLeft
  {
    OFFSET -4.352037 1.398274 -5.493664
    CHANNELS 3 Zrotation Xrotation Yrotation
    JOINT KneeLeft
    {
      OFFSET -4.751904 -34.234605 0.081175
      CHANNELS 3 Zrotation Xrotation Yrotation
      JOINT AnkleLeft
      {
        OFFSET -2.827756 -34.024730 6.562304
        CHANNELS 3 Zrotation Xrotation Yrotation
        JOINT FootLeft
        {
          OFFSET 3.870469 -6.262480 -0.341673
          CHANNELS 3 Zrotation Xrotation Yrotation
          End Site
          {
            OFFSET 0 0 0
          }
        }
      }
    }
  }
  JOINT HipRight
  {
    OFFSET 4.086917 0.115578 -0.553203
    CHANNELS 3 Zrotation Xrotation Yrotation
    JOINT KneeRight
    {
      OFFSET -0.033896 -33.799186 3.007404
      CHANNELS 3 Zrotation Xrotation Yrotation
      JOINT AnkleRight
      {
        OFFSET -4.596768 -33.943159 7.182195
        CHANNELS 3 Zrotation Xrotation Yrotation
        JOINT FootRight
        {
          OFFSET -3.894132 -6.697390 -4.962270
          CHANNELS 3 Zrotation Xrotation Yrotation
          End Site
          {
            OFFSET 0 0 0
          }
        }
      }
    }
  }
}
MOTION
Frames: 12
Frame Time: 0.033333
17.076627 74.838473 355.848617 -0.000000 0.000000 -30.346214 -0.000000 0.000000 30.346214 -0.000000 0.000000 0.000000 -0.000000 0.000000 0.000000 0.000000 0.000000 0.000000 -0.000000 0.000000 0.000000 -0.000000 0.000000 0.000000 -0.000000 0.000000 0.000000 -0.000000 0.000000 0.000000 0.000000 0.000000 0.000000 0.000000 0.000000 0.000000 -0.000000 0.000000 0.000000 -0.000000 0.000000 0.000000 -0.000000 0.000000 0.000000 -0.000000 0.000000 0.000000 0.000000 0.000000 0.000000 0.000000 0.000000 0.000000 -0.000000 0.000000 30.346214 -0.000000 0.000000 0.000000 -0.000000 0.000000 0.000000 0.000000 0.000000 0.000000 -0.000000 0.000000 30.346214 -0.000000 0.000000 0.000000 -0.000000 0.000000 0.000000 0.000000 0.000000 0.000000
17.076676 74.848576 355.857447 0.073401 0.105480 -30.538919 -0.009622 -0.128145 30.538841 -0.000000 0.000000 0.000000 -0.000000 0.000000 0.000000 0.000000 0.000000 0.000000 1.135927 0.539268 -0.276592 -1.921807 -0.810689 -0.638871 3.461804 1.456161 1.286425 -1.115211 0.010529 -0.440933 0.000000 0.000000 0.000000 0.000000 0.000000 0.000000 -2.059072 2.660304 0.229235 1.965677 -2.305443 -1.739347 0.825533 1.493156 -2.133902 -4.296468 -5.948597 1.603828 0.000000 0.000000 0.000000 0.000000 0.000000 0.000000 -0.009622 -0.128145 30.538841 -0.000000 0.000000 0.000000 1.288794 7.204985 4.261148 0.000000 0.000000 0.000000 -0.009622 -0.128145 30.538841 -0.000000 0.000000 0.000000 4.212673 5.577245 -6.471223 0.000000 0.000000 0.000000
17.076304 74.856246 355.862537 0.137871 0.198360 -30.714425 -0.017217 -0.240954 30.714150 -0.000000 0.000000 0.000000 -0.000000 0.000000 0.000000 0.000000 0.000000 0.000000 2.200604 1.049062 -0.548795 -3.699797 -1.585816 -1.142733 6.718525 2.935699 2.262067 -2.224589 -0.014699 -1.123645 0.000000 0.000000 0.000000 0.000000 0.000000 0.000000 -3.979791 5.156336 0.541225 3.791836 -4.488185 -3.155104 1.652841 2.926141 -4.836148 -7.721632 -11.878018 3.319806 0.000000 0.000000 0.000000 0.000000 0.000000 0.000000 -0.017217 -0.240954 30.714150 -0.000000 0.000000 0.000000 1.941631 13.318271 7.792368 0.000000 0.000000 0.000000 -0.017217 -0.240954 30.714150 -0.000000 0.000000 0.000000 8.471043 9.970361 -12.518840 0.000000 0.000000 0.000000
17.075512 74.861482 355.863889 0.193377 0.278593 -30.872854 -0.023023 -0.338346 30.872316 -0.000000 0.000000 0.000000 -0.000000 0.000000 0.000000 0.000000 0.000000 0.000000 3.193442 1.529996 -0.814816 -5.332580 -2.326700 -1.505393 9.736380 4.371096 2.923510 -3.278013 -0.066285 -2.029878 0.000000 0.000000 0.000000 0.000000 0.000000 0.000000 -5.754370 7.472580 0.917058 5.467575 -6.530256 -4.272186 2.449417 4.157805 -7.963419 -10.063128 -17.385892 5.344636 0.000000 0.000000 0.000000 0.000000 0.000000 0.000000 -0.023023 -0.338346 30.872316 -0.000000 0.000000 0.000000 2.158907 18.161364 10.609402 0.000000 0.000000 0.000000 -0.023023 -0.338346 30.872316 -0.000000 0.000000 0.000000 12.278607 13.067470 -17.637872 0.000000 0.000000 0.000000
17.074300 74.864284 355.861502 0.239891 0.346139 -31.014323 -0.027250 -0.420258 31.013499 -0.000000 0.000000 0.000000 -0.000000 0.000000 0.000000 0.000000 0.000000 0.000000 4.114070 1.982811 -1.073036 -6.819264 -3.034743 -1.721301 12.480992 5.696961 3.275024 -4.225025 -0.132497 -3.137430 0.000000 0.000000 0.000000 0.000000 0.000000 0.000000 -7.376543 9.600281 1.338353 6.984865 -8.420069 -5.114417 3.148029 5.038084 -11.308586 -11.213667 -22.062128 7.831486 0.000000 0.000000 0.000000 0.000000 0.000000 0.000000 -0.027250 -0.420258 31.013499 0.256681 0.960583 -0.032539 1.837875 20.777527 12.810178 0.000000 0.000000 0.000000 -0.027250 -0.420258 31.013499 -0.000000 0.000000 0.000000 15.274351 15.000106 -21.497656 0.000000 0.000000 0.000000
17.072667 74.864654 355.855375 0.277394 0.400970 -31.138946 -0.030083 -0.486640 31.137848 -0.000000 0.000000 0.000000 -0.000000 0.000000 0.000000 0.000000 0.000000 0.000000 4.962283 2.408335 -1.321996 -8.159268 -3.711284 -1.785395 14.915976 6.852858 3.326847 -5.016415 -0.199594 -4.420941 0.000000 0.000000 0.000000 0.000000 0.000000 0.000000 -8.841298 11.536281 1.787907 8.337919 -10.151532 -5.703168 3.651574 5.432246 -14.620268 -11.212560 -25.527975 10.810294 0.000000 0.000000 0.000000 0.000000 0.000000 0.000000 -0.030083 -0.486640 31.137848 0.280529 1.097980 -0.039919 1.645212 23.022779 14.293416 0.000000 0.000000 0.000000 -0.030083 -0.486640 31.137848 -0.000000 0.000000 0.000000 17.259736 15.969655 -23.935963 0.000000 0.000000 0.000000
17.067531 74.858834 355.842392 0.301538 0.431518 -31.198167 -0.034409 -0.525307 31.196874 -0.000000 0.000000 0.000000 -0.627333 -0.784115 0.282230 0.000000 0.000000 0.000000 6.209593 2.986846 -1.682744 -9.504763 -4.467122 -1.292004 16.752353 7.392022 2.210930 -6.297651 -0.601228 -5.854910 0.000000 0.000000 0.000000 0.000000 0.000000 0.000000 -9.336666 12.230207 1.969390 8.702136 -10.429761 -5.983024 3.846779 5.109157 -15.035177 -10.615184 -26.357704 12.194070 0.000000 0.000000 0.000000 0.000000 0.000000 0.000000 -0.034409 -0.525307 31.196874 0.530178 1.309648 -0.012685 1.520271 25.912760 16.086531 0.000000 0.000000 0.000000 -0.034409 -0.525307 31.196874 -0.000000 0.000000 0.000000 20.596984 15.951624 -27.207871 0.000000 0.000000 0.000000
17.066261 74.853257 355.828142 0.311099 0.455901 -31.315289 -0.028831 -0.551176 31.313913 -0.000000 0.000000 0.000000 -0.842967 -1.322252 0.449621 0.000000 0.000000 0.000000 7.133835 3.441218 -1.970832 -11.062870 -5.354969 -0.845347 18.905269 7.919919 0.665666 -5.461254 0.325155 -6.851597 0.000000 0.000000 0.000000 0.000000 0.000000 0.000000 -10.332967 13.618980 2.355513 9.628399 -11.789997 -6.356125 3.365901 4.094689 -16.067225 -10.081939 -27.020887 13.774337 0.000000 0.000000 0.000000 0.000000 0.000000 0.000000 -0.028831 -0.551176 31.313913 0.453273 1.384810 -0.033239 2.287100 35.786655 21.827520 0.000000 0.000000 0.000000 -0.028831 -0.551176 31.313913 -0.000000 0.000000 0.000000 19.776600 14.679789 -25.671870 0.000000 0.000000 0.000000
17.064242 74.847213 355.816493 0.325826 0.473702 -31.354939 -0.031764 -0.574060 31.353433 -0.000000 0.000000 0.000000 -1.135671 -1.920806 0.638338 0.000000 0.000000 0.000000 7.648812 3.762129 -2.163916 -11.954863 -5.937448 -0.625109 19.616950 8.326573 0.776547 -5.425166 0.206503 -8.208918 0.000000 0.000000 0.000000 0.000000 0.000000 0.000000 -11.724515 15.613149 2.972452 10.922209 -13.896069 -6.500397 1.849009 1.338827 -19.288535 -7.380055 -25.263585 18.620854 0.000000 0.000000 0.000000 0.000000 0.000000 0.000000 -0.031764 -0.574060 31.353433 0.266410 1.298210 -0.059675 1.405150 33.768987 21.044935 0.000000 0.000000 0.000000 -0.031764 -0.574060 31.353433 -0.000000 0.000000 0.000000 14.999907 12.459657 -19.811313 0.000000 0.000000 0.000000
17.059356 74.842984 355.794146 0.326473 0.496726 -31.416973 -0.019693 -0.594080 31.415456 -0.000000 0.000000 0.000000 -1.470578 -2.699028 0.875212 0.000000 0.000000 0.000000 7.709377 3.903011 -2.230472 -12.454105 -6.346308 -0.396712 20.122196 8.548493 0.604124 -5.337028 0.167694 -8.852373 0.000000 0.000000 0.000000 0.000000 0.000000 0.000000 -13.941477 18.517255 3.972657 13.011334 -17.163131 -6.500901 1.389467 0.929900 -23.535517 -4.792602 -22.730081 24.001897 0.000000 0.000000 0.000000 0.000000 0.000000 0.000000 -0.019693 -0.594080 31.415456 0.146887 0.962071 -0.052953 1.262760 26.191930 16.305864 0.000000 0.000000 0.000000 -0.019693 -0.594080 31.415456 -0.000000 0.000000 0.000000 7.739971 7.213727 -10.327623 0.000000 0.000000 0.000000
17.057151 74.841273 355.776189 0.326288 0.532653 -31.527500 0.000396 -0.624644 31.525986 -0.000000 0.000000 0.000000 -1.743249 -3.612177 1.138185 0.000000 0.000000 0.000000 7.273312 3.803237 -2.137909 -12.567845 -6.545256 -0.113813 21.067070 8.578016 -0.678679 -5.594727 0.113369 -9.603321 0.000000 0.000000 0.000000 0.000000 0.000000 0.000000 -16.889055 22.283398 5.512972 15.834819 -21.882845 -6.157889 0.640676 0.971778 -31.393404 -2.059551 -21.817967 31.810592 0.000000 0.000000 0.000000 0.000000 0.000000 0.000000 0.000396 -0.624644 31.525986 0.015446 0.810416 -0.064573 0.175191 12.457536 8.196278 0.000000 0.000000 0.000000 0.000396 -0.624644 31.525986 -0.000000 0.000000 0.000000 6.439707 6.123253 -8.608955 0.000000 0.000000 0.000000
17.039468 74.869987 355.749616 0.317606 0.538041 -31.696927 0.012463 -0.624663 31.695504 -0.000000 0.000000 0.000000 -2.154829 -4.431187 1.382051 0.000000 0.000000 0.000000 6.584089 3.624290 -1.984982 -12.271288 -6.576493 0.178265 21.399691 8.430063 -1.682579 -5.181968 0.482443 -9.111150 0.000000 0.000000 0.000000 0.000000 0.000000 0.000000 -17.578989 23.304809 5.989553 16.666011 -23.804601 -7.738737 0.123990 1.550347 -28.009879 -2.449106 -23.504876 30.299831 0.000000 0.000000 0.000000 0.000000 0.000000 0.000000 0.012463 -0.624663 31.695504 -0.000000 0.000000 0.000000 -2.040113 -6.857961 -4.314070 0.000000 0.000000 0.000000 0.012463 -0.624663 31.695504 -0.779106 0.553871 -0.236124 5.982216 4.635279 -6.763307 0.000000 0.000000 0.000000
